<svg xmlns="http://www.w3.org/2000/svg" xmlns:xlink="http://www.w3.org/1999/xlink" xmlns:inkscape="http://www.inkscape.org/namespaces/inkscape" version="1.1" width="1000" height="1000" viewBox="0 0 1000 1000">
<defs>
<clipPath id="clip_1">
<path transform="matrix(1,0,0,-1,0,1000)" d="M0 1000H1000V0H0Z"/>
</clipPath>
</defs>
<g inkscape:groupmode="layer" inkscape:label="Layer 1">
<g clip-path="url(#clip_1)">
<path transform="matrix(1,0,0,-1,718.7692,590.6791)" d="M0 0C1.623-.422 12.355-3.225 17.833-5.176 19.13-5.638 20.289-6.095 20.289-6.095 23.708-7.445 26.163-8.709 27.12-9.199 31.54-11.463 36.038-13.57 40.494-15.761 43.664-17.32 47.17-19.044 49.676-20.203 54.29-22.338 61.115-25.149 70.191-27.698 63.929-27.349 57.247-26.763 50.204-25.854 42.745-24.892 35.764-23.682 29.305-22.339 30.991-23.181 32.677-24.024 34.362-24.867 53.856-31.737 71.884-40.651 89.269-50.144 78.91-50.152 68.825-47.678 58.061-45.635L35.664-41.384 10.986-36.207C-5.941-32.461-22.867-28.714-39.794-24.968-32.195-29.729-21.121-36.689-7.749-45.169 .563-50.441 10.817-59.58 34.57-72.205 49.772-80.285 63.958-88.831 77.579-99.885L81.525-107.968C81.96-108.779 82.395-109.591 82.829-110.402 81.373-109.659 79.912-108.919 78.445-108.183 54.751-96.287 31.068-86.011 7.543-77.159 5.51-76.123 2.283-74.447-1.618-72.267-10.128-67.511-14.623-64.395-24.353-58.429-27.466-56.521-32.12-53.705-37.906-50.349L-75.933-31.962C-82.389-28.841-87.085-24.344-95.314-22.307L-71.326-51.211-39.156-86.583-60.634-77.458-75.51-69.513C-87.527-63.095-99.182-56.703-109.773-47.75L-123.992-39.744C-124.58-44.035-122.705-46.333-120.728-48.897L-109.756-63.127C-100.001-75.779-90.346-87.891-83.105-102.084-82.949-103.41-82.479-103.812-82.569-104.335-82.687-105.02-84.007-105.427-84.214-104.971L-85.477-102.194C-86.631-107.274-84.014-112.403-82.254-117.708L-76.061-145.933-75.231-158.2-68.057-203.347C-69.569-199.66-71.818-194.144-74.509-187.435-83.67-164.591-84.94-161.047-89.241-149.761-96.12-131.712-105.373-115.713-114.482-98.729-118.723-90.821-124.463-84.368-131.178-78.35L-142.177-65.251C-140.034-91.948-133.049-116.647-121.659-140.233L-109.356-170.542C-105.045-211.776-105.239-253.622-127.421-289.523L-127.24-260.586C-126.998-221.724-132.459-183.475-145.469-147.236L-144.104-184.265C-144.866-184.321-145.762-184.441-146.73-184.04-148.397-179.335-149.966-174.264-151.345-168.839-155.156-153.851-156.51-140.137-156.706-128.556-156.653-119.764-156.601-110.971-156.548-102.179-158.727-79.449-168.007-49.408-186.573-37.04L-184.147-65.451C-182.773-81.545-180.47-96.757-182.15-113.281-184.25-104.268-189.298-96.901-193.031-88.687-199.779-73.841-209.469-64.397-217.555-54.924-222.791-48.79-227.41-43.88-230.757-40.442-227.162-55.33-223.915-72.222-221.684-90.879-219.485-109.273-218.651-126.227-218.611-141.366L-218.637-180.72C-218.406-182.512-218.272-184.839-218.544-187.528-218.819-190.239-219.424-192.507-220.015-194.224-220.065-192.549-220.156-190.141-220.33-187.232-220.405-185.986-220.507-184.289-220.632-182.909-220.854-180.473-221.337-176.98-222.501-172.625-223.521-174.349-224.589-176.409-225.556-178.797-226.406-180.894-227.021-182.857-227.473-184.608L-233.218-152.03C-235.665-138.158-236.483-124.021-241.319-110.104-241.679-108.208-243.449-108.488-243.622-110.452-243.968-108.493-244.785-105.655-246.14-104.849-247.327-104.143-249.719-105.884-252.679-105.032L-256.676-126.51C-261.134-165.549-273.184-217.146-288.629-251.903L-298.726-271.268-294.04-246.312-287.571-190.299-287.956-186.646C-287.999-186.24-289.58-186.557-289.59-186.709-287.304-176.995-285.1-166.971-284.61-156.858-283.887-141.959-262.428-116.687-268.513-70.323L-268.959-58.026-278.521-79.846C-284.445-93.362-287.747-107.387-296.458-120.371-291.462-98.71-293.433-76.984-287.125-53.588-287.542-53.758-288.199-54.058-288.922-54.553-291.522-56.332-292.291-58.789-294.019-62.292-294.734-63.74-295.857-65.862-297.489-68.374L-305.895-99.195-316.085-139.268C-316.882-142.401-321.461-144.709-320.903-148.408L-346.285-173.404C-358.359-185.442-369.7-197.187-380.297-209.725-381.128-208.091-380.169-206.465-379.159-204.649-383.266-204.871-384.117-207.724-386.245-209.679-387.222-206.465-384.195-205.37-383.068-203.47L-367.477-177.183C-354.688-155.62-336.786-129.643-335.252-102.797-343.301-113.624-348.723-124.318-357.973-133.386-361.987-143.092-369.516-149.791-378.059-154.386L-398.505-170.719C-399.588-170.135-399.964-168.666-399.12-167.438L-374.759-131.987-350.96-101.024-331.669-71.395C-326.528-63.499-322.046-55.638-319.752-46.337L-319.859-40.488-325.521-45.282C-341.279-54.025-346.347-67.326-359.379-77.663L-341.246-32.24C-339.107-26.88-336.271-23.434-332.675-18.217-355.608-26.03-375.974-39.976-391.31-58.342L-410.567-84.701C-414.39-89.933-414.469-97.317-419.709-101.561-418.15-102.581-417.428-101.618-417.236-101.346-416.906-100.879-415.767-101.089-415.797-101.643-415.824-102.142-416.917-102.858-416.758-103.328-418.483-103.034-418.745-103.9-420.132-105.013-439.976-120.93-461.002-133.853-483.805-145.229-486.822-146.734-489.639-147.185-492.645-150.386-493.343-145.636-489.396-144.762-487.388-142.648L-462.462-116.42C-449.429-102.706-437.298-89.214-426.293-73.82L-403.444-41.858-387.021-13.219-398.741-18.096C-411.817-23.538-424.043-29.262-435.531-37.522L-437.867-38.187C-438.518-38.373-439.003-39.666-438.587-40.027-437.92-40.607-435.915-41.049-433.783-40.417-436.327-47.526-442.344-52.788-447.271-58.958-451.785-64.612-456.231-69.804-461.287-74.473L-481.677-83.334C-501.505-90.585-520.677-98.169-542.671-100.349L-488.121-58.977-475.826-48.86-493.609-53.369C-492.629-50.797-490.603-47.838-488.246-45.793-476.286-35.413-465.803-24.217-457.129-10.499L-477.981-15.659C-493.717-19.554-509.016-23.572-525.004-23.427L-506.727-16.728C-501.895-14.313-497.011-11.903-492.075-9.499-485.303-6.201-478.581-2.985-471.912 .149-314.608 .1-157.304 .05 0 0" fill="#4e180c"/>
<path transform="matrix(1,0,0,-1,459.4069,222.99823)" d="M0 0-5.155 24.376C-5.484 25.934-5.773 26.765-6.256 27.417-7.107 28.564-8.796 28.542-9.532 27.552-6.438 17.992-2.905 8.022-2.289-2.421-.658-3.182 .439-2.074 0 0M246.21 26.343C243.589 26.929 242.801 23.907 241.58 22.526L226.902 5.919 215.277-7.505C197.899-25.036 182.317-43.422 172.288-65.82 167.009-77.61 169.144-83.067 164.676-83.016 162.541-82.991 161.741-81.376 160.652-79.968 156.293-79.775 151.063-81.237 147.076-79.081 147.308-65.136 151.988-52.447 156.402-39.673L162.954-20.705 138.748-46.922C120.928-66.221 106.346-97.824 104.142-124.65L91.413-112.949C85.306-103.925 87.601-92.198 88.38-80.828 83.888-83.131 82.619-88.458 80.736-92.801 75.742-104.319 72.01-117.032 63.559-126.895 54.127-137.903 44.79-148.529 33.012-158.541 36.775-140.409 39.344-124.649 35.064-107.173L20.897-129.737C15.982-139.757 11.067-149.776 6.153-159.796 2.937-159.834-.279-159.872-3.495-159.911-1.827-155.563 .483-149.128 2.74-141.178 9.622-116.937 10.484-98.071 10.659-93.062 11.056-81.675 10.302-73.083 10.121-71.118 9.187-60.971 7.46-52.694 5.818-44.825 4.773-39.813 3.786-35.662 3.062-32.744 2.041-29.083 1.02-25.421-.001-21.759L-.534-56.473C-.7-67.267-.634-77.728-4.663-87.832-8.427-76.564-9.047-65.829-10.537-54.828-13.885-30.11-19.035-6.898-25.431 17.149L-37.748 63.46C-38.189 65.12-38.579 66.059-40.431 65.852-41.421 75.546-43.15 85.14-42.195 96.288-32.53 84.236-26.621 71.061-21.056 57.335L-11.338 33.367-16.009 70.736C-18.592 91.395-23.384 111.159-22.831 133.179-12.551 125.729-6.234 114.898-1.839 103.661 6.117 83.319 10.522 62.34 13.668 40.722 14.542 34.721 16.039 29.498 15.082 23.08 18.52 23.951 17.204 25.893 17.44 27.983 20.294 53.355 21.54 78.037 23.093 103.325 32.04 79.844 36.148 56.809 39.656 32.806 41.888 17.537 43.833 2.98 44.533-12.477 44.635-14.736 44.317-16.562 46.246-17.743L44.683-25.145C42.67-34.682 39.797-43.741 36.039-52.776 32.51-63.154 36.894-77.107 33.488-89.672 33.157-90.892 35.519-91.404 35.939-90.44L37.215-87.508C39.514-87.092 42.38-88.54 44.303-89.246L44.163-92.596C43.9-98.872 64.297-86.567 68.687-46.221L71.175-23.359C73.041-6.209 73.243 10.049 71.49 26.734 71.109 30.355 71.144 36.504 72.781 39.338 75.486 42.717 72.159 48.697 77.039 50.572L81.904 30.064C84.839 53.3 87.428 76.415 86.883 100.331L83.882 133.63C109.43 109.69 108.374 73.628 108.334 42.501 117.998 67.209 122.871 91.156 124.94 116.551L126.083 130.568C149.013 104.955 140.648 59.414 125.399 30.399L111.032 3.062C106.393-5.764 102.712-14.201 101.224-24.081 99.993-32.257 98.176-39.938 95.682-48.193 98.771-45.618 99.38-41.847 101.462-38.437L125.007 .124C137.597 20.744 146.662 42.676 157.393 64.245L168.406 86.379C168.213 72.354 165.838 58.655 161.746 44.498L147.601-4.446 187.632 49.623C197.69 63.207 209.123 75.191 223.201 84.421L238.603 92.08 224.134 65.677 185.093-2.316 235.883 46.895C244.091 54.848 253.718 60.39 264.833 62.727 260.134 48.781 253.993 37.099 246.21 26.343" fill="#aa4c25"/>
<path transform="matrix(1,0,0,-1,726.3373,667.83779)" d="M0 0C21.994-19.338 42.943-39.63 61.348-63.112 70.643-74.971 85.699-98.632 83.538-112.649 53.767-75.955 17.232-46.691-25.386-25.08-1.426-66.332 19.775-115.444 19.791-164.276 7.886-144.123-3.5-125.744-16.914-108.47-15.122-107.004-11.761-105.988-10.29-108.143-9.203-109.734-8.679-112.34-5.619-111.783L-19.662-88.907C-21.722-88.321-24.872-84.295-21.637-82.819L-37.926-58.172-63.063-26.107C-67.87-19.974-72.9-14.601-79.728-9.294-75.67-17.576-70.992-24.523-67.922-33.398L-56.897-65.269C-55.388-69.633-53.365-75.581-49.572-78.358-42.717-109.376-37.795-140.917-37.97-173.981-41.039-169.326-41.705-164.403-43.993-159.181L-83.604-68.774-89.797-40.549C-90.699-37.935-91.6-35.321-92.501-32.708-96.023-22.497-96.232-20.01-98.209-15.467-99.485-12.537-101.561-9.333-105.661-3.044-108.462 1.252-112.378 7.113-117.299 14.031L-128.271 28.261C-130.249 30.826-132.123 33.123-131.536 37.415L-117.317 29.409C-106.726 20.456-95.07 14.063-83.053 7.645L-68.177-.299-46.7-9.424-78.869 25.948-102.857 54.852C-94.629 52.815-89.932 48.318-83.477 45.196L-45.449 26.809C-39.663 23.454-35.009 20.638-31.896 18.729-22.167 12.764-17.672 9.648-9.161 4.892-5.26 2.712-2.034 1.036 0 0" fill="#ab4d25"/>
<path transform="matrix(1,0,0,-1,596.838,379.94819)" d="M0 0C7.345-.74 14.956-1 21.889 .305 33.447 6.268 43.515 13.384 50.931 24.71L35.083 17.088 7.287 7.539C4.488 6.577 2.21 3.412 0 0M146.537 48.364 127.175 41.499C117.543 38.083 108.051 36.376 98.785 32.171 100.465 40.563 102.688 47.526 106.99 54.419L128.378 88.695C136.929 102.397 144.516 115.093 154.862 128.214L113.216 93.169C96.974 79.5 86.253 62.558 75.854 44.612 72.404 38.658 70.524 33.488 67.934 27.12L57.044 .34C56.785-.298 54.668-1.368 55.208-2.198L8.701-2.11-30.905-2.197C-30.973-1.357-30.482 .056-29.615 .756L-2.686 22.531 12.43 33.776 31.411 51.697C53.421 72.479 59.58 76.333 69.317 106.768L73.858 125.907 96.227 145.555 122.563 170.513C130.232 177.781 138.723 184.294 149.489 186.979 144.664 170.006 136.571 155.981 126.05 143.331L103.294 115.972C96.587 107.908 90.112 100.363 85.184 91.003 88.556 90.72 89.207 94.342 91.227 95.83L122.243 118.676C139.994 131.75 157.269 144.082 174.114 158.608 183.017 166.286 201.814 180.354 205.709 178.538 209.967 176.554 197 151.766 187.281 140.867L156.933 106.833C147.013 95.709 137.339 85.086 129.465 71.061L176.717 108.546C188.251 117.696 200.043 124.69 214.131 130.656L199.536 109.679 150.295 51.832C149.018 50.331 147.753 48.796 146.537 48.364" fill="#aa4d25"/>
<path transform="matrix(1,0,0,-1,424.4523,210.79993)" d="M0 0 2.615-13.886C8.587-34.673 13.057-55.318 13.597-77.047L13.037-86.628C12.137-88.588 13.846-89.842 16.059-88.313 15.591-91.334 16.156-95.046 15.207-98.241 12.675-106.769 13.787-114.97 11.609-123.312L4.009-152.417-1.719-169.338C-2.552-169.716-4.532-169.35-6.231-169.635-4.236-157.359-7.747-141.588-9.331-127.992-10.382-118.971-9.182-110.255-11.56-101.769-12.257-105.739-13.495-108.487-15.566-111.561-21.815-120.833-25.142-131.349-28.304-141.777-29.093-144.38-29.876-146.913-31.765-148.16-36.759-142.106-38.167-135.191-41.925-128.973L-76.905-71.099-86.13-51.641C-91.795-39.694-99.811-29.385-108.155-18.799L-119.248-4.726C-126.479 12.791-132.797 30.823-135.712 50.091-137.099 59.261-137.923 67.839-134.443 76.828L-122.735 62.884C-115.775 54.593-110.853 45.156-106.152 35.516L-88.53-.615C-79.526-19.077-67.775-35.258-53.857-50.544-49.406-55.432-45.947-60.794-40.406-63.709-39.746-65.995-38.263-67.96-36.177-69.894L-20.313-84.606C-16.981-68.155-20.222-46.263-26.323-33.476-25.241-32.841-25.03-32.122-25.35-30.579L-35.964 20.529C-40.586 42.783-46.759 63.911-48.856 86.616-38.602 80.682-33.507 72.085-27.286 63.365-17.643 44.718-10.571 25.256-3.395 5.351-2.604 3.158-1.882 1.069 0 0" fill="#aa4c25"/>
<path transform="matrix(1,0,0,-1,457.6763,382.90913)" d="M0 0-154.417 .807C-154.455 1.259-154.599 1.884-153.876 2.77-161.362 14.674-170.015 25.387-178.316 36.925-179.628 38.748-180.268 38.639-181.369 39.256-181.308 40.745-182.703 41.384-183.605 42.435-182.917 44.24-183.428 45.754-184.526 47.602L-192.939 61.761C-197.358 74.638-211.75 81.497-202.736 83.965-199.877 84.748-178.762 70.326-172.439 63.148-164.866 54.55-156.765 47.158-148.799 39.032-135.059 25.015-112.96 13.741-93.299 13.36-91.028 13.316-90.432 14.263-89.24 15.859-86.932 18.952-97.796 25.327-100.704 33.213L-108.589 54.596C-118.447 80.125-129.62 104.658-142.529 129.544L-168.608 179.819-152.472 167.383-141.379 153.31C-133.035 142.724-125.019 132.415-119.354 120.468L-110.129 101.011-75.149 43.136C-71.391 36.918-69.983 30.004-64.989 23.95-63.1 25.196-62.317 27.729-61.528 30.332-58.366 40.761-55.039 51.276-48.79 60.548-46.719 63.622-45.481 66.371-44.784 70.34-42.406 61.855-43.606 53.139-42.555 44.118-40.971 30.521-37.46 14.75-39.455 2.474-37.756 2.759-35.776 2.393-34.943 2.771L-29.215 19.692-21.615 48.797C-19.437 57.14-20.549 65.34-18.017 73.869-17.068 77.063-17.633 80.775-17.165 83.796-19.378 82.267-21.087 83.521-20.187 85.482L-19.627 95.062C-20.167 116.791-24.637 137.437-30.609 158.223L-33.224 172.109-38.701 225.763C-36.849 225.97-36.459 225.031-36.017 223.37L-23.7 177.06C-17.304 153.013-12.155 129.801-8.807 105.083-7.317 94.082-6.696 83.347-2.932 72.079 1.096 82.183 1.031 92.644 1.197 103.438L1.73 138.151 4.793 127.167C9.299 111.541 11.083 98.247 11.851 88.793 14.365 57.873 8.827 33.503 5.765 20.497 3.713 11.781 1.548 4.712 0 0" fill="#4f180c"/>
<path transform="matrix(1,0,0,-1,574.4537,774.9438)" d="M0 0C1.224-33.171 9.453-67.312 3.804-96.711 2.077-105.699 .621-114.924-6.991-122.078-10.582-94.016-13.175-67.318-20.117-40.843L-28.722-8.023C-28.987-7.012-29.317-5.991-30.404-5.896-30.915-1.688-31.622 2.699-32.573 7.236-36.628 26.579-43.837 42.518-51.013 54.826-52.219 42.91-53.426 30.994-54.633 19.077-57.189-6.428-59.745-31.934-62.302-57.44-64.199-77.865-68.308-97.38-75.931-116.483-77.416-120.204-79.169-123.527-82.023-126.391L-78.753-68.921C-78.272-58.489-78.258-46.854-79.076-34.23-79.879-21.829-81.354-10.481-83.132-.344-82.823 1.313-82.313 3.301-81.453 5.468-80.437 8.024-79.228 10.084-78.16 11.639-76.681 7.027-76.227 3.501-76.1 1.068-76.05 .099-75.986-1.944-75.781-6.28-75.713-7.705-75.654-8.879-75.614-9.666-75.121-7.927-74.507-5.775-74.441-3.264-74.382-1.055-74.535 1.222-74.533 3.545L-74.508 42.898C-74.578 58.107-75.427 75.052-77.581 93.386-79.807 112.337-83.048 129.533-86.653 144.738-83.239 141.468-78.174 136.449-72.365 130.003-63.241 119.875-54.338 109.822-46.513 95.15-43.911 90.271-40.539 83.211-37.547 74.18-37.449 78.865-37.416 86.143-37.9 95.06-38.374 103.793-39.235 109.229-40.044 118.814-40.867 128.563-41.69 138.312-42.513 148.061-39.884 145.948-36.408 142.853-32.831 138.66-32.831 138.66-25.96 130.603-20.865 119.014-11.093 96.782-10.199 60.48-10.155 58.202-9.885 45.911-8.452 31.078-4.401 14.908-3.064 9.568-1.569 4.596 0 0" fill="#ab4c25"/>
<path transform="matrix(1,0,0,-1,670.6956,254.04138)" d="M0 0-4.541-19.139C-14.278-49.574-20.436-53.428-42.447-74.21L-61.428-92.131-76.543-103.376-103.473-125.15C-104.339-125.851-104.83-127.264-104.763-128.104L-205.136-128.752C-200.221-118.733-195.307-108.713-190.392-98.694L-176.224-76.13C-171.945-93.606-174.514-109.366-178.276-127.498-166.499-117.485-157.162-106.859-147.73-95.852-139.279-85.989-135.547-73.276-130.553-61.757-128.67-57.415-127.401-52.088-122.909-49.785-123.688-61.155-125.983-72.882-119.876-81.906L-107.146-93.607C-104.943-66.781-90.361-35.178-72.541-15.878L-48.334 10.338-54.887-8.629C-59.3-21.404-63.981-34.093-64.213-48.038-60.226-50.194-54.995-48.732-50.636-48.925-49.548-50.333-48.748-51.948-46.613-51.972-42.145-52.024-44.28-46.567-39.001-34.777-28.972-12.379-13.389 6.007 3.988 23.538L15.613 36.962 30.291 53.569C31.512 54.951 32.3 57.972 34.921 57.386L25.718 44.667C13.702 30.088 2.732 15.733-5.462-1.591-3.284-2.062-1.893-.714 0 0" fill="#4d190d"/>
<path transform="matrix(1,0,0,-1,283.6845,756.8195)" d="M0 0 34.202 25.419C44.05 33.805 48.692 44.469 52.567 56.144L59.425 76.814C56.233 76.432 56.049 73.537 54.562 72.015 49.238 66.562 44.148 61.69 40.105 55.193 27.951 35.661 14.066 18.012 0 0M36.605-4.578 23.222-17.188C24.391-8.325 29.617-2.342 32.568 6.547L20.969-3.175C-2.166-18.926-26.787-32.045-53.46-40.879-57.189-42.114-60.307-43.67-64.4-42.189-33.174-12.483-5.578 20.509 16.444 57.384 17.527 59.198 18.941 61.071 18.351 62.813 18.192 63.283 19.285 63.998 19.312 64.497 19.343 65.051 18.203 65.261 17.874 64.794 17.682 64.522 16.96 63.559 15.4 64.579 20.641 68.823 20.72 76.207 24.543 81.44L43.8 107.798C59.136 126.165 79.501 140.11 102.435 147.924 98.839 142.706 96.003 139.26 93.863 133.9L75.731 88.477C88.763 98.814 93.831 112.115 109.589 120.858L115.251 125.653 115.358 119.803C113.064 110.503 108.581 102.642 103.44 94.746L84.149 65.117 60.35 34.153 35.99-1.297C35.146-2.526 35.521-3.994 36.605-4.578" fill="#ab4c25"/>
<path transform="matrix(1,0,0,-1,276.3078,343.6529)" d="M0 0C1.1-.617 1.741-.508 3.053-2.332 11.354-13.869 20.007-24.582 27.492-36.486 26.769-37.373 26.913-37.997 26.952-38.449L-59.387-38.233-77.295-41.938C-88.011-44.155-96.695-41.935-106.611-38.355L-161.4-18.579C-148.738-14.316-135.413-13.508-121.677-16.06L-107.409-18.711-62.681-29.667-88.273-10.51C-107.282 3.719-125.77 17.409-146.136 29.339-146.891 29.782-148.182 30.99-148.24 31.596-148.298 32.202-145.856 32.735-145.393 32.99-130.786 35.068-116.894 31.884-102.58 27.231-78.814 18.313-56.528 7.637-34.556-4.799-33.066-5.642-32.328-6.693-30.572-6.284-30.568-6.288-28.62-8.267-28.616-8.271-28.612-8.276-26.634-10.286-26.629-10.29-20.132-13.927-13.635-17.563-7.138-21.199-10.117-15.563-15.519-12.599-20.607-9.109L-30.357-2.422C-30.858-3.528-30.725-4.215-30.753-4.788-44.002 11.778-59.497 26.611-72.754 46.035-55.967 39.668-41.896 29.768-27.707 19.687Z" fill="#aa4d25"/>
<path transform="matrix(1,0,0,-1,349.0875,328.3128)" d="M0 0 7.885-21.384C10.793-29.269 21.657-35.644 19.348-38.737 18.157-40.333 17.561-41.28 15.29-41.236-4.371-40.856-26.47-29.581-40.211-15.564-48.177-7.438-56.277-.046-63.85 8.551-70.173 15.73-91.288 30.151-94.147 29.369-103.161 26.901-88.769 20.041-84.351 7.165L-75.937-6.994C-74.839-8.843-74.328-10.356-75.016-12.161L-86.662 1.405-128.553 49.197C-114.316 47.578-104.178 40.246-91.716 36.27-109.55 56.577-126.063 75.464-123.614 103.005-110.783 94.493-100.836 83.814-90.441 72.405-75.585 56.101-61.612 39.932-45.549 25.107-48.906 40.19-56.12 51.409-61.394 64.346L-74.269 95.928C-51.952 76.055-33.274 50.932-16.956 24.328L-4.559 4.115C-3.516 2.415-1.965 .537 0 0" fill="#ab4d25"/>
<path transform="matrix(1,0,0,-1,485.5758,742.7091)" d="M0 0C-6.085-27.713-8.965-56.327-9.663-87.292L-22.642-45.623C-32.336-83.525-47.96-123.008-74.166-151.248-80.164-157.712-85.781-163.331-94.254-167.923L-85.188-136.736C-75.209-102.411-64.447-69.003-56.371-34.679-56.362-34.527-54.78-34.21-54.738-34.616L-54.352-38.269-60.821-94.282-65.508-119.238-55.411-99.873C-39.966-65.115-27.916-13.519-23.457 25.52L-19.461 46.998C-16.501 46.146-14.109 47.887-12.922 47.181-11.567 46.375-10.75 43.537-10.404 41.578-10.231 43.542-8.461 43.822-8.101 41.926-3.265 28.009-2.447 13.872 0 0" fill="#ab4e25"/>
<path transform="matrix(1,0,0,-1,246.8823,590.52969)" d="M0 0C-11.605-5.626-23.21-11.252-34.815-16.878L-53.092-23.576C-37.104-23.722-21.805-19.703-6.069-15.809L14.783-10.649C6.109-24.367-4.374-35.562-16.334-45.942-18.691-47.987-20.718-50.946-21.697-53.519-34.502-56.765-47.226-59.862-60.833-61.407-73.519-62.848-85.875-64.502-99.202-60.849-79.35-48.716-57.092-41.593-39.31-29.957L-79.578-34.326-129.551-40.903C-136.066-41.76-142.233-42.946-148.953-41.522-138.423-33.809-125.115-25.518-108.941-18.366-76.17-3.876-46.139-.48-26.059 .007-22.815 .005-14.862 .001-11.618 0-9.411 0-2.206 0 0 0" fill="#aa4d25"/>
<path transform="matrix(1,0,0,-1,231.4058,733.32766)" d="M0 0C-.314 1.409-1.188 1.495-2.012 1.221L-5.028 .216-18.142-6.032C-33.144-13.179-49.131-17.571-66.993-15.308-49.629-3.981-32.645 5.798-17.373 19.329-1.022 33.817 13.671 48.585 26.766 66.497 27.305 67.234 26.957 67.948 26.101 68.176 31.158 72.844 35.603 78.036 40.118 83.69 45.044 89.86 51.062 95.123 53.605 102.232 51.474 101.6 49.468 102.041 48.801 102.622 48.386 102.983 48.87 104.276 49.521 104.461L51.857 105.127C63.345 113.386 75.571 119.111 88.647 124.552L100.367 129.429 83.944 100.791 61.096 68.829C50.091 53.434 37.96 39.942 24.927 26.229Z" fill="#ab4d25"/>
<path transform="matrix(1,0,0,-1,434.1845,747.5367)" d="M0 0C-1.816-.363-2.685-2.076-3.758-3.857-18.375-28.123-34.164-51.042-53.834-71.629L-60.32-77.277-52.533-47.957-37.236 2.173C-36.516 4.533-36.018 6.625-36.293 8.45-36.851 12.148-32.272 14.456-31.475 17.59L-21.285 57.663-12.879 88.484C-11.714 90.865-10.625 92.991-9.655 94.831-7.281 99.336-6.235 100.969-4.313 102.305-3.206 103.074-2.159 103.502-1.449 103.743-3.721 92.819-5.826 81.303-7.674 69.228-9.408 57.892-10.778 46.962-11.849 36.487-3.137 49.471 .165 63.495 6.088 77.012L15.651 98.832 16.097 86.535C22.182 40.171 .722 14.899 0 0" fill="#ab4c25"/>
<path transform="matrix(1,0,0,-1,814.4252,325.86268)" d="M0 0C-1.376 .809-2.046 .128-3.154-.601L-24.83-14.86C-43.431-28.501-62.031-42.143-80.631-55.784L-52.737-49.496C-50.882-50.242-50.716-52.642-49.143-54.036L-52.785-56.433-136.087-56.316C-126.703-47.447-115.311-41.761-104.051-35.008L-82.363-22.001C-77.846-19.292-73.362-16.923-70.708-11.504-74.02-11.97-75.211-14.264-78.088-14.176-76.229-11.364-74.135-9.902-72.221-8.699-68.979-8.6-65.405-6.861-62.364-5.019-30.551 14.247 2.019 37.662 40.151 25.435 25.232 17.019 11.609 9.624 0 0" fill="#ab4d25"/>
<path transform="matrix(1,0,0,-1,808.0636,640.82266)" d="M0 0C19.418-10.602 41.77-23.761 54.158-43.85 51.747-43.706 49.028-43.409 46.796-42.413 21.184-30.987-4.827-22.529-32.34-15.308-34.419-14.763-36.048-12.292-38.265-13.601-24.231-23.964-11.315-34.36 .331-47.1 7.737-55.199 15.356-63.475 18.06-74.914L-7.279-59.772C-8.749-56.429-10.22-53.085-11.69-49.741-25.311-38.687-39.497-30.142-54.7-22.061-78.453-9.437-88.706-.297-97.018 4.974-110.39 13.455-121.465 20.414-129.064 25.176-112.137 21.429-95.21 17.683-78.284 13.936L-53.606 8.76-31.209 4.508C-20.445 2.465-10.36-.008 0 0" fill="#ab4d25"/>
<path transform="matrix(1,0,0,-1,650.7372,794.0265)" d="M0 0 5.99-42.718 6.121-57.919-41.299 32.806-53.602 63.115C-64.992 86.701-71.977 111.399-74.12 138.096L-63.121 124.998C-56.406 118.979-50.666 112.527-46.425 104.619-37.316 87.634-28.063 71.636-21.184 53.587-16.404 41.044-16.189 40.192-6.452 15.913-3.762 9.204-1.512 3.687 0 0" fill="#aa4c25"/>
<path transform="matrix(1,0,0,-1,743.3754,331.58369)" d="M0 0C.215-1.043-.064-2.347-1.171-2.978-3.085-4.181-5.18-5.643-7.039-8.455-4.162-8.543-2.971-6.249 .342-5.783-2.312-11.202-6.797-13.571-11.313-16.28L-33.001-29.287C-44.262-36.04-55.654-41.726-65.038-50.595L-91.33-50.562C-91.87-49.732-89.752-48.662-89.493-48.024L-78.603-21.244C-76.014-14.876-74.133-9.706-70.684-3.753-60.285 14.194-49.564 31.136-33.321 44.805L8.324 79.85C-2.022 66.728-9.609 54.033-18.159 40.33L-39.548 6.055C-43.849-.838-46.072-7.801-47.752-16.193-38.487-11.989-28.995-10.282-19.362-6.866Z" fill="#4d180c"/>
<path transform="matrix(1,0,0,-1,788.9447,619.04116)" d="M0 0C-2.638 .838-6.522 2.143-11.135 3.969-18.235 6.779-21.198 8.501-31.768 13.629-42.944 19.052-48.538 22.197-55.002 24.041L-70.151 28.362C-64.507 28.563-56.029 28.725-45.754 28.362-11.103 27.14 40.065 25.334 82.485-6.405 90.427-12.346 101.538-21.938 112.596-36.709 75.136-18.983 38.898-6.232 0 0" fill="#ab4e25"/>
<path transform="matrix(1,0,0,-1,530.8964,196.26422)" d="M0 0C1.753-16.685 1.551-32.943-.315-50.093L-2.803-72.956C-7.192-113.301-27.589-125.606-27.327-119.33L-27.186-115.98C-29.109-115.274-31.975-113.826-34.274-114.242L-35.55-117.174C-35.97-118.138-38.333-117.626-38.002-116.406-34.595-103.841-38.98-89.888-35.451-79.51-31.692-70.475-28.82-61.416-26.806-51.879L-25.244-44.477C-21.421-26.369-17.786-8.274-15.585 10.122-13.501 9.791-15.02 4.911-13.966 3.732-10.672 .045-4.287-.102 0 0" fill="#561a0b"/>
<path transform="matrix(1,0,0,-1,338.4968,800.40396)" d="M0 0C-12.767-15.104-27.038-30.187-44.828-41.317-30.603-7.064-13.691 22.343 2.273 53.268 3.035 53.942 2.986 54.671 2.238 55.339 10.782 59.934 18.31 66.633 22.325 76.339 31.574 85.407 36.997 96.101 45.046 106.927 43.511 80.082 25.61 54.105 12.82 32.542L-2.771 6.255C-3.898 4.355-6.925 3.26-5.948 .045-3.82 2-2.969 4.854 1.139 5.076 .128 3.26-.831 1.634 0 0" fill="#ac4f25"/>
<path transform="matrix(1,0,0,-1,544.2867,780.8398)" d="M0 0C-2.652-24.525-6.765-48.724-12.801-72.604L-15.111-42.493C-16.878-19.468-19.42 2.805-24.229 24.973-24.401 26.738-24.5 29.437-24.36 31.036L-21.431 64.478C-12.094 48.722-6.666 31.424-2.169 13.132-1.024 8.473 .465 4.297 0 0" fill="#50180c"/>
<path transform="matrix(1,0,0,-1,709.423,776.3081)" d="M0 0C-8.963 11.542-20.493 21.21-32.657 30.113-36.45 32.889-38.474 38.838-39.983 43.201L-51.008 75.072C-54.077 83.947-58.756 90.895-62.813 99.177-55.986 93.869-50.956 88.496-46.149 82.364L-21.012 50.299-4.723 25.651C.386 20.738 7.004 13.319 13.157 2.842 18.904-6.944 22.384-16.227 24.519-23.304 16.346-15.536 8.173-7.768 0 0" fill="#51180b"/>
<path transform="matrix(1,0,0,-1,388.2826,223.6413)" d="M0 0C-.917 .588-4.763 .428-5.443-.958-4.042-17.379-2.777-34.108-4.055-49.976-12.734-23.325-22.548 2.785-32.487 29.577-36.096 39.305-40.019 47.881-40.834 58.554-26.01 45.259-7.791 16.327 0 0" fill="#aa4c25"/>
<path transform="matrix(1,0,0,-1,536.4464,172.42658)" d="M0 0C-4.88-1.875-1.553-7.855-4.258-11.233-5.895-14.068-5.93-20.216-5.55-23.838-9.837-23.94-16.222-23.793-19.516-20.106-20.57-18.926-19.051-14.047-21.135-13.715-18.654 7.03-20.382 27.818-22.804 49.026L-25.068 68.841C-13.356 46.551-5.595 23.587 0 0" fill="#752a15"/>
<path transform="matrix(1,0,0,-1,814.4252,325.86268)" d="M0 0C-15.323-18.836-30.914-38.027-49.143-54.036-49.504-54.511-50.696-55.949-52.785-56.433-53.972-56.707-54.981-56.566-55.572-56.433-63.925-56.217-72.278-56-80.631-55.784-62.031-42.143-43.431-28.501-24.83-14.86L-3.154-.601C-2.103-.401-1.051-.2 0 0" fill="#51180b"/>
<path transform="matrix(1,0,0,-1,388.2826,223.6413)" d="M0 0 9.846-20.634C15.948-33.421 19.189-55.314 15.857-71.764L-.007-57.053C-2.094-55.118-3.577-53.153-4.236-50.868-4.628-50.66-4.696-49.95-4.055-49.976-2.777-34.108-4.042-17.379-5.443-.958-4.763 .428-.917 .588 0 0" fill="#54180a"/>
<path transform="matrix(1,0,0,-1,245.7361,349.93708)" d="M0 0C-.348 .501-.354 1.052-.181 1.496-.154 2.069-.287 2.756 .215 3.862L9.965-2.825C12.86-4.627 15.891-6.742 18.962-9.227 28.402-16.865 34.813-25.241 39.088-32.119 39.088-32.119 38.5-31.658 38.5-31.657 37.665-31.003 7.129-7.05 6.293-6.394 4.195-4.263 2.098-2.132 0 0" fill="#3a140d"/>
<path transform="matrix(1,0,0,-1,459.4069,222.99823)" d="M0 0C.439-2.074-.658-3.182-2.289-2.421-2.905 8.022-6.438 17.992-9.532 27.552-8.796 28.542-7.107 28.564-6.256 27.417-5.773 26.765-5.484 25.934-5.155 24.376Z" fill="#692710"/>
<path transform="matrix(1,0,0,-1,596.838,379.94819)" d="M0 0C2.21 3.412 4.488 6.577 7.287 7.539L35.083 17.088 50.931 24.71C43.515 13.384 33.447 6.268 21.889 .305 14.956-1 7.345-.74 0 0" fill="#7b3018"/>
<path transform="matrix(1,0,0,-1,283.6845,756.8195)" d="M0 0C14.066 18.012 27.951 35.661 40.105 55.193 44.148 61.69 49.238 66.562 54.562 72.015 56.049 73.537 56.233 76.432 59.425 76.814L52.567 56.144C48.692 44.469 44.05 33.805 34.202 25.419Z" fill="#4f180c"/>
<path transform="matrix(1,0,0,-1,181.9781,551.3583)" d="M0 0C9.562 2.78 17.403 8.995 22.748 17.367 31.81 31.563 32.454 53.078 19.834 64.63 15.443 68.65 10.262 71.285 4.576 73.136-9.63 77.76-27.727 80.695-42.426 77.827-45.975 74.19-44.708 64.091-44.643 57.183-44.509 42.974-44.162 29.147-42.871 14.998-42.34 9.186-46.143 4.295-41.39 2.983-27.979-.719-13.525-3.933 0 0M1.679 113.651C5.512 129.194-26.31 130.081-40.151 128.298-42.546 127.989-44.945 126.002-44.936 123.54L-44.811 92.711C-44.802 90.441-43.406 88.537-41.083 88.323-23.356 86.694-2.529 96.591 1.679 113.651M44.234 33.672C38.405 15.997 22.385-.716 4.494-6.362-13.95-12.183-41.096-4.645-63.272-4.321-65.411-4.29-66.87-2.603-67.057-.703-67.229 1.036-65.656 3.058-63.673 3.531-59.448 4.538-56.943 7.444-56.977 11.788L-57.176 37.258-58.951 113.657C-59.047 117.8-59.58 121.658-60.117 125.579L-64.487 128.258C-67.257 129.956-68.037 134.012-65.613 136.284-63.682 138.095-60.911 138.561-58.241 138.545L-25.768 138.353C-16.216 138.297-7.081 136.654 2.085 134.351 6.021 133.362 9.663 131.814 12.883 129.591 23.484 122.273 14.678 105.546 4.651 97.981L-4.744 90.893C-5.313 90.464-6.01 89.102-5.839 88.47-5.668 87.837-4.525 86.815-3.839 86.626L9.783 82.877C17.084 80.868 23.843 78.094 30.102 73.988 43.654 65.099 49.304 49.042 44.234 33.672" fill="#ffffff"/>
<path transform="matrix(1,0,0,-1,729.2971,468.1173)" d="M0 0C2.624 .255 4.584-1.389 5.129-3.522L10.792-25.681 16.015-41.309 20.576-55.837 27.213-72.952C28.922-70.889 29.625-68.93 30.271-66.62L38.418-37.505 40.702-28.811 41.924-19.661 43.88-7.036C44.221-4.838 45.644-2.717 47.482-1.548 49.109-.513 51.276-.302 53.041-1.109 54.262-1.668 55.692-3.407 56.228-5.208L69.853-51.035 76.354-69.181C76.671-70.066 77.635-70.938 78.692-71.516 81.4-65.753 82.745-60.092 84.451-54.01 87.632-42.661 90.29-31.54 92.056-19.874L94.573-6.9C95.396-2.659 98.617 1.476 103.029 .255 104.666-.198 107.241-2.397 106.684-4.65L103.32-18.261 92.042-57.897 84.953-85.837C84.1-89.2 82.118-91.83 78.972-93.141 75.68-94.513 72.905-93.168 71.125-90.168 68.307-85.417 66.228-80.415 64.392-75.053L52.005-38.877C51.578-37.632 50.303-35.936 48.937-36.523 47.707-38.579 46.768-40.919 46.059-43.277L36.924-73.681 32.656-87.236C31.56-90.717 28.153-93.599 24.493-94.022 21.752-94.339 19.752-92.09 18.924-89.66L7.57-56.355-6.244-19.791-9.899-9.263C-10.943-6.256-9.183-3.114-6.321-1.763-4.48-.895-2.31-.225 0 0" fill="#ffffff"/>
<path transform="matrix(1,0,0,-1,623.949,454.00019)" d="M0 0C2.287 7.071 1.498 14.758-2.945 20.773-10.137 30.51-25.749 33.267-37.79 34.048-44.443 34.479-50.828 33.902-57.479 33.339-60.749 33.062-63.031 31.063-63.02 27.473L-62.848-26.836C-62.841-28.871-61.347-30.546-59.24-30.544L-44.222-30.528C-25.02-29.135-6.018-18.603 0 0M-61.929-97.394C-61.758-102.218-68.364-104.951-73.571-105.539-76.039-105.818-78.331-103.991-78.241-101.474L-77.688-86.027-76.776-70.132-75.811-51.898-75.851-37.251-76.046-1.551-76.671 22.064C-76.751 25.074-76.847 27.917-77.599 30.847-80.006 33.261-84.143 33.869-83.886 37.292-83.538 41.91-73.245 42.54-67.128 42.644-56.869 42.818-46.927 43.22-36.723 42.302-21.904 40.97-3.492 36.699 8.069 27.645 18.945 19.126 17.51 6.397 11.25-5.23 1.558-23.228-18.827-34.977-38.98-37.664L-58.756-40.301C-61.364-40.648-63.189-43.065-63.19-45.531L-63.197-61.525Z" fill="#ffffff"/>
<path transform="matrix(1,0,0,-1,694.7861,536.43887)" d="M0 0-.325 15.087C-.355 16.472-1.318 19.476-2.549 19.676L-15.644 21.797C-26.158 22.658-36.688 19.631-44.813 13.142-48.802 9.956-51.735 5.898-52.69 .898-53.583-3.773-52.644-9.348-49.379-12.963-36.316-27.426 .296-13.725 0 0M-59.472-20.259C-68.351-14.104-70.162-4.53-64.586 4.95-61.221 10.671-56.409 14.978-50.793 18.558-38.733 26.245-25.002 30.248-10.612 29.673-5.952 29.487-.812 31.328-.744 35.592-.677 39.781-.775 44.025-2.138 48.069-5.422 57.816-18.307 62.338-28.68 59.753-39.131 57.148-45.274 48.32-49.654 47.417-52.282 46.876-55.245 49.1-57.217 50.526-59.021 51.831-59.2 54.99-57.09 56.249-49.285 60.905-40.948 64.669-32.058 67.118-23.713 69.418-15.355 68.883-7.366 65.966-3.468 64.543-.333 62.236 2.665 59.55 6.304 56.291 8.694 52.576 9.664 47.74 11.142 40.366 12.138 33.093 12.354 25.473L13.138-2.238C10.981-10.371 17.961-15.628 12.01-21.078 9.948-22.966 7.384-24.891 4.591-25.336 1.963-25.756 .25-24.288-.319-21.982-.766-20.172-2.657-18.89-4.63-19.484L-13.812-22.25C-28.226-26.592-46.927-28.957-59.472-20.259" fill="#ffffff"/>
<path transform="matrix(1,0,0,-1,325.169,510.0275)" d="M0 0 .079-25.031C.096-30.404 1.288-35.368 3.092-40.374 4.444-44.127-.603-47.705-4.723-48.822-7.032-49.449-9.321-47.641-9.875-45.44L-11.812-37.755C-11.9-37.406-12.271-36.64-12.582-36.497-12.971-36.317-13.874-36.67-14.367-36.905-19.355-41.709-24.729-45.449-31.288-47.918-42.715-51.655-55.134-50.94-65.941-45.686-72.928-42.289-77.551-35.998-78.411-28.412-78.924-23.88-78.968-19.624-78.961-14.967L-78.886 34.943C-78.879 39.069-73.112 41.068-68.52 41.685-65.877 42.04-63.574 39.784-63.717 37.251L-64.232 28.08C-66.07 12.127-67.313-3.596-66.286-19.606-65.624-29.927-60.46-36.105-50.556-38.997-36.689-43.047-23.25-36.652-15.028-24.93-12.887-21.877-12.027-18.355-12.017-14.568L-11.927 18.578-12.124 35.401C-12.171 39.477-7.365 41.183-2.575 41.314 .384 41.395 2.864 38.981 2.601 35.779 1.622 23.819-.038 12.115 0 0" fill="#ffffff"/>
<path transform="matrix(1,0,0,-1,462.3858,478.83174)" d="M0 0C-9.112 .452-21.691-4.491-25.388-11.913-26.719-14.585-27.182-18.034-27.158-21.061L-26.961-45.309-25.671-72.544C-25.561-74.862-26.811-76.648-28.684-77.766-32.866-80.262-37.411-81.971-40.402-78.801-43.314-75.715-39.751-68.563-39.499-59.808-38.923-39.842-39.601-20.308-40.755-.385-41.046 4.628-38.493 9.22-33.86 11.014-32.65 11.483-30.372 11.247-29.263 10.633-28.344 10.124-27.422 8.611-27.163 7.266L-26.197 2.257C-26.103 1.769-25.558 .928-25.169 .706-24.702 .439-23.363 .651-22.857 .981-15.059 6.06-6.579 9.394 2.756 10.531 7.273 11.081 12.096 10.898 16.096 8.801 20.039 6.733 20.857-1.074 17.897-2.97 14.619-5.07 8.377-.416 0 0" fill="#ffffff"/>
<path transform="matrix(1,0,0,-1,391.3492,478.77699)" d="M0 0C-10.796 .124-25.711-6.935-26.115-17.635L-26.544-29.017-25.88-55.6-24.874-72.23C-24.787-73.673-25.103-75.644-26.186-76.581-30.466-80.284-36.908-82.254-39.727-78.631-40.844-77.194-40.893-75.291-40.494-73.454-39.202-67.52-38.4-61.972-38.343-55.86-38.167-37.109-38.796-18.727-39.786 .013-40.045 4.918-37.178 9.115-32.88 10.902-30.2 12.016-27.156 10.654-26.54 7.77L-25.34 2.155C-25.236 1.667-24.767 .566-24.309 .592L-22.197 .71C-14.149 6.177-5.164 9.45 4.551 10.609 8.764 10.775 13.007 10.774 16.763 8.944 21.299 6.735 21.764-1.356 18.925-3.14 15.69-5.174 8.536-.098 0 0" fill="#ffffff"/>
<path transform="matrix(1,0,0,-1,761.8625,393.23713)" d="M0 0C-189.106 .054-378.212 .108-567.318 .162V6.96C-566.805 7.02-566.292 7.081-565.78 7.142-565.437 7.193-565.095 7.244-564.752 7.295-564.586 7.323-564.421 7.351-564.255 7.379-562.066 7.745-560.008 8.234-560.008 8.234-558.751 8.525-555.178 9.269-545.928 11.102-545.511 11.185-545.094 11.268-544.677 11.351-508.037 11.288-478.851 11.185-458.745 11.102-422.506 10.951-389.845 10.755-382.068 10.708-370.572 10.638-358.911 10.56-354.539 10.531-292.337 10.123-200.211 10.971-186.715 11.091-146.422 11.45-87.653 11.724-12.626 11.197L1.02 10.784C.68 7.19 .34 3.595 0 0" fill="#587a47"/>
<path transform="matrix(1,0,0,-1,769.4995,590.6791)" d="M0 0C-189.106 .054-378.212 .108-567.318 .162V6.96C-566.805 7.02-566.292 7.081-565.78 7.142-565.437 7.193-565.095 7.244-564.752 7.295-564.586 7.323-564.421 7.351-564.255 7.379-562.066 7.745-560.008 8.234-560.008 8.234-558.751 8.525-555.178 9.269-545.928 11.102-521.605 11.025-483.219 10.89-458.896 10.796-432.774 10.695-398.16 10.546-381.834 10.473-299.536 10.103-15.619 8.883 0 8.815Z" fill="#587a47"/>
</g>
</g>
</svg>
