<svg xmlns="http://www.w3.org/2000/svg" viewBox="0 0 128 128" fill="none" role="img" aria-label="Burr Paw">
  <defs>
    <radialGradient id="bpCore" cx="0.42" cy="0.38" r="0.72">
      <stop offset="0%" stop-color="#ffb36a"/>
      <stop offset="35%" stop-color="#ef6d28"/>
      <stop offset="78%" stop-color="#a33c12"/>
      <stop offset="100%" stop-color="#5a220c"/>
    </radialGradient>
  </defs>

  <!-- Burr silhouette -->
  <path
    fill="url(#bpCore)"
    d="M64 6c2.2 8.6 4.1 16.2 5.2 22.4 5.4-7.8 11.6-14.2 18.2-18.8-1.4 9.2-1.8 17.4-1.5 24.2 8.6-4.8 17.4-7.2 25.8-7.2-5.8 7.6-10.2 14.8-13.2 21.4 9.2.8 18.2 3.2 26.5 7.1-8.1 4.6-15.4 7.6-21.8 9.2 5.8 6.6 9.4 14.2 10.6 22.4-8.4-2.4-16.2-3.2-23.2-2.6 1.8 8.8 1.4 17.6-.8 26.2-6.2-6.4-11.2-13-14.8-19.4-1.2 8.4-3.4 16.4-6.6 23.9-3.2-7.5-5.4-15.5-6.6-23.9-3.6 6.4-8.6 13-14.8 19.4-2.2-8.6-2.6-17.4-.8-26.2-7-.6-14.8.2-23.2 2.6 1.2-8.2 4.8-15.8 10.6-22.4C22.9 61.7 15.6 58.7 7.5 54.1c8.3-3.9 17.3-6.3 26.5-7.1C31 40.4 26.6 33.2 20.8 25.6c8.4 0 17.2 2.4 25.8 7.2.3-6.8-.1-15-1.5-24.2 6.6 4.6 12.8 11 18.2 18.8C59.9 22.2 61.8 14.6 64 6Z"
  />
  <circle cx="64" cy="64" r="22" fill="#6d2a10" opacity="0.28"/>

  <!-- Wordmark plate -->
  <rect x="16" y="52" width="96" height="24" fill="#0e0d0b"/>
  <rect x="18" y="54.2" width="92" height="1.4" fill="#ef6d28"/>
  <rect x="18" y="72.4" width="92" height="1.4" fill="#c9a87a"/>
  <text
    x="64"
    y="68.2"
    text-anchor="middle"
    font-family="Georgia, 'Times New Roman', Times, serif"
    font-size="12.5"
    font-weight="700"
    fill="#f6f2ea"
    letter-spacing="0.6"
  >Burr Paw</text>
</svg>
